<svg height="64px" width="64px" version="1.1" id="Layer_1" xmlns="http://www.w3.org/2000/svg" xmlns:xlink="http://www.w3.org/1999/xlink" viewBox="0 0 512 512" xml:space="preserve" fill="#000000"><g id="SVGRepo_bgCarrier" stroke-width="0"></g><g id="SVGRepo_tracerCarrier" stroke-linecap="round" stroke-linejoin="round"></g><g id="SVGRepo_iconCarrier"> <circle style="fill:#FFFFFF;" cx="256" cy="256" r="232.727"></circle> <path style="fill:#00384E;" d="M256,512C114.839,512,0,397.161,0,256S114.839,0,256,0s256,114.839,256,256S397.161,512,256,512z M256,23.273C127.674,23.273,23.273,127.674,23.273,256S127.674,488.727,256,488.727S488.727,384.326,488.727,256 S384.326,23.273,256,23.273z"></path> <circle style="fill:#FAA85F;" cx="256" cy="256" r="209.455"></circle> <g> <circle style="fill:#FFFFFF;" cx="256" cy="162.909" r="34.909"></circle> <path style="fill:#FFFFFF;" d="M221.091,267.636v93.091c0,12.858,10.415,23.273,23.273,23.273h46.545V244.364 c0-12.858-10.415-23.273-23.273-23.273h-46.545h-23.273v23.273C197.818,257.222,208.233,267.636,221.091,267.636L221.091,267.636"></path> </g> </g></svg>